<mxfile host="drawio-plugin" modified="2025-08-02T12:14:55.049Z" agent="Mozilla/5.0 (Windows NT 10.0; Win64; x64) AppleWebKit/537.36 (KHTML, like Gecko) Chrome/122.0.0.0 Safari/537.36" etag="-p6istkQ26obqDvZmb_H" version="22.1.22" type="embed">
  <diagram id="4lR3cVPxHdGG_qDessxr" name="Page-1">
    <mxGraphModel dx="4503" dy="6173" grid="1" gridSize="10" guides="1" tooltips="1" connect="1" arrows="1" fold="1" page="1" pageScale="1" pageWidth="850" pageHeight="1100" math="0" shadow="0">
      <root>
        <mxCell id="0" />
        <mxCell id="1" parent="0" />
        <mxCell id="98" value="" style="html=1;overflow=block;blockSpacing=1;whiteSpace=wrap;fontSize=13;spacing=9;strokeOpacity=100;fillOpacity=100;rounded=1;absoluteArcSize=1;arcSize=9;fillColor=#56517E;strokeWidth=1.5;lucidId=F_bB_G0Hd1b~;labelBackgroundColor=none;strokeColor=#EEEEEE;fontColor=#FFFFFF;" vertex="1" parent="1">
          <mxGeometry x="-650" y="-698" width="783" height="670" as="geometry" />
        </mxCell>
        <mxCell id="99" value="" style="html=1;overflow=block;blockSpacing=1;whiteSpace=wrap;fontSize=13;spacing=0;strokeOpacity=100;rounded=1;absoluteArcSize=1;arcSize=9;fillColor=#56517E;strokeWidth=NaN;lucidId=VlcBs1cVSyKV;labelBackgroundColor=none;strokeColor=#EEEEEE;fontColor=#FFFFFF;" vertex="1" parent="1">
          <mxGeometry x="-645" y="-556" width="763" height="2" as="geometry" />
        </mxCell>
        <mxCell id="100" value="" style="html=1;overflow=block;blockSpacing=1;whiteSpace=wrap;fontSize=13;spacing=0;strokeOpacity=100;fillOpacity=100;rounded=1;absoluteArcSize=1;arcSize=9;fillColor=#56517E;strokeWidth=1.5;lucidId=0lcBDDSQpAao;labelBackgroundColor=none;strokeColor=#EEEEEE;fontColor=#FFFFFF;" vertex="1" parent="1">
          <mxGeometry x="-645" y="-558" width="778" height="2" as="geometry" />
        </mxCell>
        <mxCell id="101" value="Cook (AbstractUser)" style="html=1;overflow=block;blockSpacing=1;whiteSpace=wrap;fontSize=60;align=left;spacing=3.8;strokeOpacity=100;rounded=1;absoluteArcSize=1;arcSize=9;strokeWidth=NaN;lucidId=3ocB-vLVqpLd;labelBackgroundColor=none;fillColor=#56517E;strokeColor=#EEEEEE;fontColor=#FFFFFF;" vertex="1" parent="1">
          <mxGeometry x="-570" y="-668" width="640" height="80" as="geometry" />
        </mxCell>
        <mxCell id="102" value="&lt;div style=&quot;display: flex; justify-content: flex-start; text-align: left; align-items: baseline; font-size: 0; line-height: 1.25;margin-top: -2px;&quot;&gt;&lt;span&gt;&lt;span style=&quot;font-size:60px;font-family: inter;&quot;&gt;&amp;nbsp;id: int&amp;nbsp;&lt;br&gt;&amp;nbsp;username: str &lt;/span&gt;&lt;span style=&quot;font-size:60px;&quot;&gt;&lt;br&gt;&lt;/span&gt;&lt;/span&gt;&lt;/div&gt;&lt;div style=&quot;display: flex; justify-content: flex-start; text-align: left; align-items: baseline; font-size: 0; line-height: 1.25;margin-top: -2px;&quot;&gt;&lt;span&gt;&lt;span style=&quot;font-size:60px;&quot;&gt;&lt;span style=&quot;font-size:60px;&quot;&gt;&amp;nbsp;email: str &lt;br&gt;&lt;/span&gt;&lt;/span&gt;&lt;/span&gt;&lt;/div&gt;&lt;div style=&quot;display: flex; justify-content: flex-start; text-align: left; align-items: baseline; font-size: 0; line-height: 1.25;margin-top: -2px;&quot;&gt;&lt;span&gt;&lt;span style=&quot;font-size:60px;&quot;&gt;&amp;nbsp;password: str&lt;br&gt;&lt;/span&gt;&lt;/span&gt;&lt;/div&gt;&lt;div style=&quot;display: flex; justify-content: flex-start; text-align: left; align-items: baseline; font-size: 0; line-height: 1.25;margin-top: -2px;&quot;&gt;&lt;span&gt;&lt;span style=&quot;font-size:60px;&quot;&gt;&amp;nbsp;first_name: str&lt;br&gt;&lt;/span&gt;&lt;/span&gt;&lt;/div&gt;&lt;div style=&quot;display: flex; justify-content: flex-start; text-align: left; align-items: baseline; font-size: 0; line-height: 1.25;margin-top: -2px;&quot;&gt;&lt;span&gt;&lt;span style=&quot;font-size:60px;&quot;&gt;&amp;nbsp;last_name: str&lt;br&gt;&lt;/span&gt;&lt;/span&gt;&lt;/div&gt;&lt;div style=&quot;display: flex; justify-content: flex-start; text-align: left; align-items: baseline; font-size: 0; line-height: 1.25;margin-top: -2px;&quot;&gt;&lt;span&gt;&lt;span style=&quot;font-size:60px;&quot;&gt;&amp;nbsp;years_of_experience: int&lt;br&gt;&lt;/span&gt;&lt;/span&gt;&lt;/div&gt;&lt;div style=&quot;display: flex; justify-content: flex-start; text-align: left; align-items: baseline; font-size: 0; line-height: 1.25;margin-top: -2px;&quot;&gt;&lt;span&gt;&lt;span style=&quot;font-size:60px;&quot;&gt;&lt;br&gt;&lt;/span&gt;&lt;/span&gt;&lt;/div&gt;&lt;div style=&quot;display: flex; justify-content: flex-start; text-align: left; align-items: baseline; font-size: 0; line-height: 1.25;margin-top: -2px;&quot;&gt;&lt;span&gt;&lt;/span&gt;&lt;/div&gt;" style="html=1;overflow=block;blockSpacing=1;whiteSpace=wrap;fontSize=13;spacing=3.8;strokeOpacity=100;fillOpacity=100;rounded=1;absoluteArcSize=1;arcSize=9;strokeWidth=1.5;lucidId=HpcBN_YT6z4t;labelBackgroundColor=none;fillColor=#56517E;strokeColor=#EEEEEE;fontColor=#FFFFFF;" vertex="1" parent="1">
          <mxGeometry x="-645" y="-554" width="780" height="526" as="geometry" />
        </mxCell>
        <mxCell id="103" value="&lt;div style=&quot;display: flex; justify-content: flex-start; text-align: left; align-items: baseline; font-size: 0; line-height: 1.25;margin-top: -2px;&quot;&gt;&lt;span&gt;&lt;span style=&quot;font-size:60px;&quot;&gt;&lt;br&gt;&lt;/span&gt;&lt;/span&gt;&lt;/div&gt;&lt;div style=&quot;display: flex; justify-content: flex-start; text-align: left; align-items: baseline; font-size: 0; line-height: 1.25;margin-top: -2px;&quot;&gt;&lt;span&gt;&lt;span style=&quot;font-size:60px;&quot;&gt;&lt;br&gt;&amp;nbsp;id: int&lt;br&gt;&lt;/span&gt;&lt;/span&gt;&lt;/div&gt;&lt;div style=&quot;display: flex; justify-content: flex-start; text-align: left; align-items: baseline; font-size: 0; line-height: 1.25;margin-top: -2px;&quot;&gt;&lt;span&gt;&lt;span style=&quot;font-size:60px;&quot;&gt;&amp;nbsp;name:str&lt;/span&gt;&lt;/span&gt;&lt;/div&gt;" style="html=1;overflow=block;blockSpacing=1;whiteSpace=wrap;fontSize=13;spacing=9;verticalAlign=middle;strokeOpacity=100;rounded=1;absoluteArcSize=1;arcSize=9;strokeWidth=NaN;lucidId=KscBXRCLlgAI;labelBackgroundColor=none;fillColor=#56517E;strokeColor=#EEEEEE;fontColor=#FFFFFF;" vertex="1" parent="1">
          <mxGeometry x="-525" y="-1190" width="660" height="380" as="geometry" />
        </mxCell>
        <mxCell id="104" value="" style="html=1;overflow=block;blockSpacing=1;whiteSpace=wrap;fontSize=13;spacing=0;strokeOpacity=100;rounded=1;absoluteArcSize=1;arcSize=9;fillColor=#56517E;strokeWidth=NaN;lucidId=4tcBmS0V2Wdo;labelBackgroundColor=none;strokeColor=#EEEEEE;fontColor=#FFFFFF;" vertex="1" parent="1">
          <mxGeometry x="-518" y="-1045" width="653" height="2" as="geometry" />
        </mxCell>
        <mxCell id="105" value="DishType" style="html=1;overflow=block;blockSpacing=1;whiteSpace=wrap;fontSize=60;align=left;spacing=3.8;strokeOpacity=100;rounded=1;absoluteArcSize=1;arcSize=9;strokeWidth=NaN;lucidId=wucBVk6nkvXB;labelBackgroundColor=none;fillColor=#56517E;strokeColor=#EEEEEE;fontColor=#FFFFFF;" vertex="1" parent="1">
          <mxGeometry x="-340" y="-1164" width="260" height="80" as="geometry" />
        </mxCell>
        <mxCell id="106" value="&lt;div style=&quot;display: flex; justify-content: flex-start; text-align: left; align-items: baseline; font-size: 0; line-height: 1.25;margin-top: -2px;&quot;&gt;&lt;span&gt;&lt;/span&gt;&lt;span&gt;&lt;div style=&quot;forced-color-adjust: none; display: flex; justify-content: flex-start; align-items: baseline; line-height: 1.25; margin-top: -2px; box-shadow: none !important;&quot;&gt;&lt;span style=&quot;forced-color-adjust: none; box-shadow: none !important;&quot;&gt;&lt;span style=&quot;forced-color-adjust: none; box-shadow: none !important; font-size: 60px;&quot;&gt;&lt;br style=&quot;forced-color-adjust: none; box-shadow: none !important;&quot;&gt;&lt;/span&gt;&lt;/span&gt;&lt;/div&gt;&lt;div style=&quot;forced-color-adjust: none; display: flex; justify-content: flex-start; align-items: baseline; line-height: 1.25; margin-top: -2px; box-shadow: none !important;&quot;&gt;&lt;span style=&quot;forced-color-adjust: none; box-shadow: none !important;&quot;&gt;&lt;span style=&quot;forced-color-adjust: none; font-size: 60px; box-shadow: none !important;&quot;&gt;&amp;nbsp;name: str&lt;br style=&quot;forced-color-adjust: none; box-shadow: none !important;&quot;&gt;&amp;nbsp;dish_type = DishType&lt;/span&gt;&lt;/span&gt;&lt;span style=&quot;forced-color-adjust: none; box-shadow: none !important;&quot;&gt;&lt;span style=&quot;forced-color-adjust: none; font-size: 60px; box-shadow: none !important;&quot;&gt;&lt;br style=&quot;forced-color-adjust: none; box-shadow: none !important;&quot;&gt;&lt;/span&gt;&lt;/span&gt;&lt;span style=&quot;forced-color-adjust: none; box-shadow: none !important;&quot;&gt;&lt;span style=&quot;forced-color-adjust: none; font-size: 60px; box-shadow: none !important;&quot;&gt;&lt;br style=&quot;forced-color-adjust: none; box-shadow: none !important;&quot;&gt;&lt;/span&gt;&lt;/span&gt;&lt;/div&gt;&lt;div style=&quot;forced-color-adjust: none; display: flex; justify-content: flex-start; align-items: baseline; line-height: 1.25; margin-top: -2px; box-shadow: none !important;&quot;&gt;&lt;span style=&quot;forced-color-adjust: none; box-shadow: none !important;&quot;&gt;&lt;span style=&quot;forced-color-adjust: none; font-size: 60px; box-shadow: none !important;&quot;&gt;&amp;nbsp;description: text&lt;br style=&quot;forced-color-adjust: none; box-shadow: none !important;&quot;&gt;&lt;/span&gt;&lt;/span&gt;&lt;/div&gt;&lt;div style=&quot;forced-color-adjust: none; display: flex; justify-content: flex-start; align-items: baseline; line-height: 1.25; margin-top: -2px; box-shadow: none !important;&quot;&gt;&lt;span style=&quot;forced-color-adjust: none; box-shadow: none !important;&quot;&gt;&lt;span style=&quot;forced-color-adjust: none; font-size: 60px; box-shadow: none !important;&quot;&gt;&amp;nbsp;price: decimal&lt;br style=&quot;forced-color-adjust: none; box-shadow: none !important;&quot;&gt;&lt;/span&gt;&lt;/span&gt;&lt;/div&gt;&lt;div style=&quot;forced-color-adjust: none; display: flex; justify-content: flex-start; align-items: baseline; line-height: 1.25; margin-top: -2px; box-shadow: none !important;&quot;&gt;&lt;span style=&quot;forced-color-adjust: none; color: rgb(18, 18, 18); background-color: rgb(27, 29, 30); box-shadow: none !important;&quot;&gt;&lt;span style=&quot;forced-color-adjust: none; font-size: 60px; box-shadow: none !important;&quot;&gt;cooks = List[Cooker]&lt;/span&gt;&lt;/span&gt;&lt;div&gt;&lt;span style=&quot;forced-color-adjust: none; font-size: 60px; box-shadow: none !important;&quot;&gt;&lt;br&gt;&lt;/span&gt;&lt;/div&gt;&lt;/div&gt;&lt;/span&gt;&lt;/div&gt;&lt;div style=&quot;display: flex; justify-content: flex-start; text-align: left; align-items: baseline; font-size: 0; line-height: 1.25;margin-top: -2px;&quot;&gt;&lt;span&gt;&lt;/span&gt;&lt;/div&gt;" style="html=1;overflow=block;blockSpacing=1;whiteSpace=wrap;fontSize=13;fontFamily=inter;spacing=9;verticalAlign=middle;strokeOpacity=100;fillOpacity=100;rounded=1;absoluteArcSize=1;arcSize=9;fillColor=#56517E;strokeWidth=1.5;lucidId=.wcBv4f1Q2uV;labelBackgroundColor=none;strokeColor=#EEEEEE;fontColor=#FFFFFF;" vertex="1" parent="1">
          <mxGeometry x="1050" y="-1159" width="788" height="611" as="geometry" />
        </mxCell>
        <mxCell id="107" value="" style="html=1;overflow=block;blockSpacing=1;whiteSpace=wrap;fontSize=13;spacing=0;strokeOpacity=100;rounded=1;absoluteArcSize=1;arcSize=9;fillColor=#56517E;strokeWidth=NaN;lucidId=gxcBYqi_WmCC;labelBackgroundColor=none;strokeColor=#EEEEEE;fontColor=#FFFFFF;" vertex="1" parent="1">
          <mxGeometry x="1050" y="-1012" width="788" height="2" as="geometry" />
        </mxCell>
        <mxCell id="108" value="Dish" style="html=1;overflow=block;blockSpacing=1;whiteSpace=wrap;fontSize=60;align=left;spacing=3.8;strokeOpacity=100;rounded=1;absoluteArcSize=1;arcSize=9;strokeWidth=NaN;lucidId=GxcBiL9EkuS0;labelBackgroundColor=none;fillColor=#56517E;strokeColor=#EEEEEE;fontColor=#FFFFFF;" vertex="1" parent="1">
          <mxGeometry x="1378" y="-1133" width="132" height="80" as="geometry" />
        </mxCell>
        <mxCell id="109" value="" style="html=1;overflow=block;blockSpacing=1;whiteSpace=wrap;fontSize=13;spacing=0;strokeOpacity=100;rounded=1;absoluteArcSize=1;arcSize=9;fillColor=#56517E;strokeWidth=NaN;lucidId=qAcBaPG2D03.;labelBackgroundColor=none;strokeColor=#EEEEEE;fontColor=#FFFFFF;" vertex="1" parent="1">
          <mxGeometry x="1100" y="-398" width="810" height="2" as="geometry" />
        </mxCell>
        <mxCell id="110" value="" style="edgeStyle=orthogonalEdgeStyle;fontSize=12;html=1;endArrow=ERoneToMany;rounded=0;exitX=1.002;exitY=0.139;exitDx=0;exitDy=0;exitPerimeter=0;arcSize=20;labelBackgroundColor=none;fontColor=default;strokeColor=default;strokeWidth=5;" edge="1" parent="1" source="103">
          <mxGeometry width="100" height="100" relative="1" as="geometry">
            <mxPoint x="530" y="-548" as="sourcePoint" />
            <mxPoint x="1060" y="-858" as="targetPoint" />
            <Array as="points">
              <mxPoint x="593" y="-1137" />
              <mxPoint x="593" y="-858" />
              <mxPoint x="1050" y="-858" />
            </Array>
          </mxGeometry>
        </mxCell>
        <mxCell id="111" value="" style="edgeStyle=orthogonalEdgeStyle;fontSize=12;html=1;endArrow=ERmany;startArrow=ERmany;rounded=0;labelBackgroundColor=none;strokeColor=#182E3E;fontColor=default;startSize=23;endSize=23;sourcePerimeterSpacing=23;targetPerimeterSpacing=23;jumpSize=16;strokeWidth=5;" edge="1" parent="1">
          <mxGeometry width="100" height="100" relative="1" as="geometry">
            <mxPoint x="1060" y="-63" as="sourcePoint" />
            <mxPoint x="1060" y="-1043" as="targetPoint" />
            <Array as="points">
              <mxPoint x="1090" y="-63" />
              <mxPoint x="1090" y="-53" />
              <mxPoint x="770" y="-53" />
              <mxPoint x="770" y="-1043" />
            </Array>
          </mxGeometry>
        </mxCell>
        <mxCell id="112" value="" style="html=1;overflow=block;blockSpacing=1;whiteSpace=wrap;fontSize=13;spacing=9;strokeOpacity=100;fillOpacity=100;rounded=1;absoluteArcSize=1;arcSize=9;fillColor=#56517E;strokeWidth=1.5;lucidId=F_bB_G0Hd1b~;labelBackgroundColor=none;strokeColor=#EEEEEE;fontColor=#FFFFFF;" vertex="1" parent="1">
          <mxGeometry x="-650" y="-698" width="783" height="670" as="geometry" />
        </mxCell>
        <mxCell id="113" value="" style="html=1;overflow=block;blockSpacing=1;whiteSpace=wrap;fontSize=13;spacing=0;strokeOpacity=100;rounded=1;absoluteArcSize=1;arcSize=9;fillColor=#56517E;strokeWidth=NaN;lucidId=VlcBs1cVSyKV;labelBackgroundColor=none;strokeColor=#EEEEEE;fontColor=#FFFFFF;" vertex="1" parent="1">
          <mxGeometry x="-645" y="-556" width="763" height="2" as="geometry" />
        </mxCell>
        <mxCell id="114" value="" style="html=1;overflow=block;blockSpacing=1;whiteSpace=wrap;fontSize=13;spacing=0;strokeOpacity=100;fillOpacity=100;rounded=1;absoluteArcSize=1;arcSize=9;fillColor=#56517E;strokeWidth=1.5;lucidId=0lcBDDSQpAao;labelBackgroundColor=none;strokeColor=#EEEEEE;fontColor=#FFFFFF;" vertex="1" parent="1">
          <mxGeometry x="-645" y="-558" width="778" height="2" as="geometry" />
        </mxCell>
        <mxCell id="115" value="Cook (AbstractUser)" style="html=1;overflow=block;blockSpacing=1;whiteSpace=wrap;fontSize=60;align=left;spacing=3.8;strokeOpacity=100;rounded=1;absoluteArcSize=1;arcSize=9;strokeWidth=NaN;lucidId=3ocB-vLVqpLd;labelBackgroundColor=none;fillColor=#56517E;strokeColor=#EEEEEE;fontColor=#FFFFFF;" vertex="1" parent="1">
          <mxGeometry x="-570" y="-668" width="640" height="80" as="geometry" />
        </mxCell>
        <mxCell id="116" value="&lt;div style=&quot;display: flex; justify-content: flex-start; text-align: left; align-items: baseline; font-size: 0; line-height: 1.25;margin-top: -2px;&quot;&gt;&lt;span&gt;&lt;span style=&quot;font-size:60px;font-family: inter;&quot;&gt;username: str &lt;/span&gt;&lt;span style=&quot;font-size:60px;&quot;&gt;&lt;br&gt;&lt;/span&gt;&lt;/span&gt;&lt;/div&gt;&lt;div style=&quot;display: flex; justify-content: flex-start; text-align: left; align-items: baseline; font-size: 0; line-height: 1.25;margin-top: -2px;&quot;&gt;&lt;span&gt;&lt;span style=&quot;font-size:60px;&quot;&gt;&lt;span style=&quot;font-size:60px;&quot;&gt;&amp;nbsp;email: str &lt;br&gt;&lt;/span&gt;&lt;/span&gt;&lt;/span&gt;&lt;/div&gt;&lt;div style=&quot;display: flex; justify-content: flex-start; text-align: left; align-items: baseline; font-size: 0; line-height: 1.25;margin-top: -2px;&quot;&gt;&lt;span&gt;&lt;span style=&quot;font-size:60px;&quot;&gt;&amp;nbsp;password: str&lt;br&gt;&lt;/span&gt;&lt;/span&gt;&lt;/div&gt;&lt;div style=&quot;display: flex; justify-content: flex-start; text-align: left; align-items: baseline; font-size: 0; line-height: 1.25;margin-top: -2px;&quot;&gt;&lt;span&gt;&lt;span style=&quot;font-size:60px;&quot;&gt;&amp;nbsp;first_name: str&lt;br&gt;&lt;/span&gt;&lt;/span&gt;&lt;/div&gt;&lt;div style=&quot;display: flex; justify-content: flex-start; text-align: left; align-items: baseline; font-size: 0; line-height: 1.25;margin-top: -2px;&quot;&gt;&lt;span&gt;&lt;span style=&quot;font-size:60px;&quot;&gt;&amp;nbsp;last_name: str&lt;br&gt;&lt;/span&gt;&lt;/span&gt;&lt;/div&gt;&lt;div style=&quot;display: flex; justify-content: flex-start; text-align: left; align-items: baseline; font-size: 0; line-height: 1.25;margin-top: -2px;&quot;&gt;&lt;span&gt;&lt;span style=&quot;font-size:60px;&quot;&gt;&amp;nbsp;years_of_experience: int&lt;br&gt;&lt;/span&gt;&lt;/span&gt;&lt;/div&gt;&lt;div style=&quot;display: flex; justify-content: flex-start; text-align: left; align-items: baseline; font-size: 0; line-height: 1.25;margin-top: -2px;&quot;&gt;&lt;span&gt;&lt;span style=&quot;font-size:60px;&quot;&gt;&lt;br&gt;&lt;/span&gt;&lt;/span&gt;&lt;/div&gt;&lt;div style=&quot;display: flex; justify-content: flex-start; text-align: left; align-items: baseline; font-size: 0; line-height: 1.25;margin-top: -2px;&quot;&gt;&lt;span&gt;&lt;/span&gt;&lt;/div&gt;" style="html=1;overflow=block;blockSpacing=1;whiteSpace=wrap;fontSize=13;spacing=3.8;strokeOpacity=100;fillOpacity=100;rounded=1;absoluteArcSize=1;arcSize=9;strokeWidth=1.5;lucidId=HpcBN_YT6z4t;labelBackgroundColor=none;fillColor=#56517E;strokeColor=#EEEEEE;fontColor=#FFFFFF;" vertex="1" parent="1">
          <mxGeometry x="-645" y="-554" width="780" height="526" as="geometry" />
        </mxCell>
        <mxCell id="117" value="&lt;div style=&quot;display: flex; justify-content: flex-start; text-align: left; align-items: baseline; font-size: 0; line-height: 1.25;margin-top: -2px;&quot;&gt;&lt;span&gt;&lt;span style=&quot;font-size:60px;&quot;&gt;&lt;br&gt;&lt;/span&gt;&lt;/span&gt;&lt;/div&gt;&lt;div style=&quot;display: flex; justify-content: flex-start; text-align: left; align-items: baseline; font-size: 0; line-height: 1.25;margin-top: -2px;&quot;&gt;&lt;span&gt;&lt;span style=&quot;font-size:60px;&quot;&gt;&lt;br&gt;&amp;nbsp;id: int&lt;br&gt;&lt;/span&gt;&lt;/span&gt;&lt;/div&gt;&lt;div style=&quot;display: flex; justify-content: flex-start; text-align: left; align-items: baseline; font-size: 0; line-height: 1.25;margin-top: -2px;&quot;&gt;&lt;span&gt;&lt;span style=&quot;font-size:60px;&quot;&gt;&amp;nbsp;name:str&lt;/span&gt;&lt;/span&gt;&lt;/div&gt;" style="html=1;overflow=block;blockSpacing=1;whiteSpace=wrap;fontSize=13;spacing=9;verticalAlign=middle;strokeOpacity=100;rounded=1;absoluteArcSize=1;arcSize=9;strokeWidth=NaN;lucidId=KscBXRCLlgAI;labelBackgroundColor=none;fillColor=#56517E;strokeColor=#EEEEEE;fontColor=#FFFFFF;" vertex="1" parent="1">
          <mxGeometry x="-525" y="-1190" width="660" height="380" as="geometry" />
        </mxCell>
        <mxCell id="118" value="" style="html=1;overflow=block;blockSpacing=1;whiteSpace=wrap;fontSize=13;spacing=0;strokeOpacity=100;rounded=1;absoluteArcSize=1;arcSize=9;fillColor=#56517E;strokeWidth=NaN;lucidId=4tcBmS0V2Wdo;labelBackgroundColor=none;strokeColor=#EEEEEE;fontColor=#FFFFFF;" vertex="1" parent="1">
          <mxGeometry x="-518" y="-1045" width="653" height="2" as="geometry" />
        </mxCell>
        <mxCell id="119" value="DishType" style="html=1;overflow=block;blockSpacing=1;whiteSpace=wrap;fontSize=60;align=left;spacing=3.8;strokeOpacity=100;rounded=1;absoluteArcSize=1;arcSize=9;strokeWidth=NaN;lucidId=wucBVk6nkvXB;labelBackgroundColor=none;fillColor=#56517E;strokeColor=#EEEEEE;fontColor=#FFFFFF;" vertex="1" parent="1">
          <mxGeometry x="-340" y="-1164" width="260" height="80" as="geometry" />
        </mxCell>
        <mxCell id="120" value="&lt;div style=&quot;display: flex; justify-content: flex-start; text-align: left; align-items: baseline; font-size: 0; line-height: 1.25;margin-top: -2px;&quot;&gt;&lt;span&gt;&lt;span style=&quot;font-size:60px;&quot;&gt;  &lt;br&gt;&lt;/span&gt;&lt;/span&gt;&lt;/div&gt;&lt;div style=&quot;display: flex; justify-content: flex-start; text-align: left; align-items: baseline; font-size: 0; line-height: 1.25;margin-top: -2px;&quot;&gt;&lt;span&gt;&lt;span style=&quot;font-size:60px;&quot;&gt;&lt;span style=&quot;font-size:60px;font-family: inter;&quot;&gt;&lt;br&gt;&lt;/span&gt;&lt;/span&gt;&lt;/span&gt;&lt;/div&gt;&lt;div style=&quot;display: flex; justify-content: flex-start; text-align: left; align-items: baseline; font-size: 0; line-height: 1.25;margin-top: -2px;&quot;&gt;&lt;span&gt;&lt;span style=&quot;font-size:60px;font-family: inter;&quot;&gt;&amp;nbsp;name: str&lt;br&gt;&amp;nbsp;dish_type = DishType&lt;/span&gt;&lt;/span&gt;&lt;span&gt;&lt;span style=&quot;font-size:60px;font-family: inter;&quot;&gt;&lt;br&gt;&lt;/span&gt;&lt;/span&gt;&lt;span&gt;&lt;span style=&quot;font-size:60px;font-family: inter;&quot;&gt;&lt;br&gt;&lt;/span&gt;&lt;/span&gt;&lt;/div&gt;&lt;div style=&quot;display: flex; justify-content: flex-start; text-align: left; align-items: baseline; font-size: 0; line-height: 1.25;margin-top: -2px;&quot;&gt;&lt;span&gt;&lt;span style=&quot;font-size:60px;font-family: inter;&quot;&gt;&amp;nbsp;description: text&lt;br&gt;&lt;/span&gt;&lt;/span&gt;&lt;/div&gt;&lt;div style=&quot;display: flex; justify-content: flex-start; text-align: left; align-items: baseline; font-size: 0; line-height: 1.25;margin-top: -2px;&quot;&gt;&lt;span&gt;&lt;span style=&quot;font-size:60px;font-family: inter;&quot;&gt;&amp;nbsp;price: decimal&lt;br&gt;&lt;/span&gt;&lt;/span&gt;&lt;/div&gt;&lt;div style=&quot;display: flex; justify-content: flex-start; text-align: left; align-items: baseline; font-size: 0; line-height: 1.25;margin-top: -2px;&quot;&gt;&lt;span&gt;&lt;span style=&quot;font-size:60px;font-family: inter;&quot;&gt;cooks = List[Cooker]&lt;/span&gt;&lt;/span&gt;&lt;span&gt;&lt;span style=&quot;font-size:60px;font-family: inter;&quot;&gt;&lt;br&gt;&lt;/span&gt;&lt;/span&gt;&lt;/div&gt;&lt;div style=&quot;display: flex; justify-content: flex-start; text-align: left; align-items: baseline; font-size: 0; line-height: 1.25;margin-top: -2px;&quot;&gt;&lt;span&gt;&lt;/span&gt;&lt;/div&gt;" style="html=1;overflow=block;blockSpacing=1;whiteSpace=wrap;fontSize=13;fontFamily=inter;spacing=9;verticalAlign=middle;strokeOpacity=100;fillOpacity=100;rounded=1;absoluteArcSize=1;arcSize=9;fillColor=#56517E;strokeWidth=1.5;lucidId=.wcBv4f1Q2uV;labelBackgroundColor=none;strokeColor=#EEEEEE;fontColor=#FFFFFF;" vertex="1" parent="1">
          <mxGeometry x="1050" y="-1169" width="788" height="621" as="geometry" />
        </mxCell>
        <mxCell id="121" value="" style="html=1;overflow=block;blockSpacing=1;whiteSpace=wrap;fontSize=13;spacing=0;strokeOpacity=100;rounded=1;absoluteArcSize=1;arcSize=9;fillColor=#56517E;strokeWidth=NaN;lucidId=gxcBYqi_WmCC;labelBackgroundColor=none;strokeColor=#EEEEEE;fontColor=#FFFFFF;" vertex="1" parent="1">
          <mxGeometry x="1050" y="-1012" width="788" height="2" as="geometry" />
        </mxCell>
        <mxCell id="122" value="Dish" style="html=1;overflow=block;blockSpacing=1;whiteSpace=wrap;fontSize=60;align=left;spacing=3.8;strokeOpacity=100;rounded=1;absoluteArcSize=1;arcSize=9;strokeWidth=NaN;lucidId=GxcBiL9EkuS0;labelBackgroundColor=none;fillColor=#56517E;strokeColor=#EEEEEE;fontColor=#FFFFFF;" vertex="1" parent="1">
          <mxGeometry x="1378" y="-1133" width="132" height="80" as="geometry" />
        </mxCell>
        <mxCell id="123" value="" style="html=1;overflow=block;blockSpacing=1;whiteSpace=wrap;fontSize=13;spacing=0;strokeOpacity=100;rounded=1;absoluteArcSize=1;arcSize=9;fillColor=#56517E;strokeWidth=NaN;lucidId=qAcBaPG2D03.;labelBackgroundColor=none;strokeColor=#EEEEEE;fontColor=#FFFFFF;" vertex="1" parent="1">
          <mxGeometry x="1100" y="-398" width="810" height="2" as="geometry" />
        </mxCell>
        <mxCell id="124" value="" style="edgeStyle=orthogonalEdgeStyle;fontSize=12;html=1;endArrow=ERoneToMany;rounded=0;exitX=1.002;exitY=0.139;exitDx=0;exitDy=0;exitPerimeter=0;arcSize=20;labelBackgroundColor=none;fontColor=default;strokeColor=default;strokeWidth=5;" edge="1" parent="1" source="117">
          <mxGeometry width="100" height="100" relative="1" as="geometry">
            <mxPoint x="530" y="-548" as="sourcePoint" />
            <mxPoint x="1060" y="-858" as="targetPoint" />
            <Array as="points">
              <mxPoint x="593" y="-1137" />
              <mxPoint x="593" y="-858" />
              <mxPoint x="1050" y="-858" />
            </Array>
          </mxGeometry>
        </mxCell>
        <mxCell id="125" value="" style="edgeStyle=entityRelationEdgeStyle;fontSize=12;html=1;endArrow=ERmany;startArrow=ERmany;rounded=0;exitX=0.996;exitY=0.091;exitDx=0;exitDy=0;exitPerimeter=0;entryX=0;entryY=0.871;entryDx=0;entryDy=0;entryPerimeter=0;labelBackgroundColor=none;strokeColor=#182E3E;fontColor=default;strokeWidth=5;" edge="1" parent="1" source="112" target="135">
          <mxGeometry width="100" height="100" relative="1" as="geometry">
            <mxPoint x="680" y="-588" as="sourcePoint" />
            <mxPoint x="780" y="-688" as="targetPoint" />
            <Array as="points">
              <mxPoint x="1050" y="-648" />
            </Array>
          </mxGeometry>
        </mxCell>
        <mxCell id="126" value="" style="edgeStyle=orthogonalEdgeStyle;fontSize=12;html=1;endArrow=ERmany;startArrow=ERmany;rounded=0;labelBackgroundColor=none;strokeColor=#182E3E;fontColor=default;startSize=23;endSize=23;sourcePerimeterSpacing=23;targetPerimeterSpacing=23;jumpSize=16;strokeWidth=5;" edge="1" parent="1">
          <mxGeometry width="100" height="100" relative="1" as="geometry">
            <mxPoint x="1060" y="-63" as="sourcePoint" />
            <mxPoint x="1060" y="-1043" as="targetPoint" />
            <Array as="points">
              <mxPoint x="1090" y="-63" />
              <mxPoint x="1090" y="-53" />
              <mxPoint x="770" y="-53" />
              <mxPoint x="770" y="-1043" />
            </Array>
          </mxGeometry>
        </mxCell>
        <mxCell id="127" value="" style="html=1;overflow=block;blockSpacing=1;whiteSpace=wrap;fontSize=13;spacing=9;strokeOpacity=100;fillOpacity=100;rounded=1;absoluteArcSize=1;arcSize=9;fillColor=#56517E;strokeWidth=1.5;lucidId=F_bB_G0Hd1b~;labelBackgroundColor=none;strokeColor=#EEEEEE;fontColor=#FFFFFF;" vertex="1" parent="1">
          <mxGeometry x="-650" y="-698" width="783" height="670" as="geometry" />
        </mxCell>
        <mxCell id="128" value="" style="html=1;overflow=block;blockSpacing=1;whiteSpace=wrap;fontSize=13;spacing=0;strokeOpacity=100;rounded=1;absoluteArcSize=1;arcSize=9;fillColor=#56517E;strokeWidth=NaN;lucidId=VlcBs1cVSyKV;labelBackgroundColor=none;strokeColor=#EEEEEE;fontColor=#FFFFFF;" vertex="1" parent="1">
          <mxGeometry x="-645" y="-556" width="763" height="2" as="geometry" />
        </mxCell>
        <mxCell id="129" value="" style="html=1;overflow=block;blockSpacing=1;whiteSpace=wrap;fontSize=13;spacing=0;strokeOpacity=100;fillOpacity=100;rounded=1;absoluteArcSize=1;arcSize=9;fillColor=#56517E;strokeWidth=1.5;lucidId=0lcBDDSQpAao;labelBackgroundColor=none;strokeColor=#EEEEEE;fontColor=#FFFFFF;" vertex="1" parent="1">
          <mxGeometry x="-645" y="-558" width="778" height="2" as="geometry" />
        </mxCell>
        <mxCell id="130" value="Cook (AbstractUser)" style="html=1;overflow=block;blockSpacing=1;whiteSpace=wrap;fontSize=60;align=left;spacing=3.8;strokeOpacity=100;rounded=1;absoluteArcSize=1;arcSize=9;strokeWidth=NaN;lucidId=3ocB-vLVqpLd;labelBackgroundColor=none;fillColor=#56517E;strokeColor=#EEEEEE;fontColor=#FFFFFF;" vertex="1" parent="1">
          <mxGeometry x="-570" y="-668" width="640" height="80" as="geometry" />
        </mxCell>
        <mxCell id="131" value="&lt;div style=&quot;display: flex; justify-content: flex-start; text-align: left; align-items: baseline; font-size: 0; line-height: 1.25;margin-top: -2px;&quot;&gt;&lt;span&gt;&lt;span style=&quot;font-size:60px;font-family: inter;&quot;&gt;&amp;nbsp;username: str &lt;/span&gt;&lt;span style=&quot;font-size:60px;&quot;&gt;&lt;br&gt;&lt;/span&gt;&lt;/span&gt;&lt;/div&gt;&lt;div style=&quot;display: flex; justify-content: flex-start; text-align: left; align-items: baseline; font-size: 0; line-height: 1.25;margin-top: -2px;&quot;&gt;&lt;span&gt;&lt;span style=&quot;font-size:60px;&quot;&gt;&lt;span style=&quot;font-size:60px;&quot;&gt;&amp;nbsp;email: str &lt;br&gt;&lt;/span&gt;&lt;/span&gt;&lt;/span&gt;&lt;/div&gt;&lt;div style=&quot;display: flex; justify-content: flex-start; text-align: left; align-items: baseline; font-size: 0; line-height: 1.25;margin-top: -2px;&quot;&gt;&lt;span&gt;&lt;span style=&quot;font-size:60px;&quot;&gt;&amp;nbsp;password: str&lt;br&gt;&lt;/span&gt;&lt;/span&gt;&lt;/div&gt;&lt;div style=&quot;display: flex; justify-content: flex-start; text-align: left; align-items: baseline; font-size: 0; line-height: 1.25;margin-top: -2px;&quot;&gt;&lt;span&gt;&lt;span style=&quot;font-size:60px;&quot;&gt;&amp;nbsp;first_name: str&lt;br&gt;&lt;/span&gt;&lt;/span&gt;&lt;/div&gt;&lt;div style=&quot;display: flex; justify-content: flex-start; text-align: left; align-items: baseline; font-size: 0; line-height: 1.25;margin-top: -2px;&quot;&gt;&lt;span&gt;&lt;span style=&quot;font-size:60px;&quot;&gt;&amp;nbsp;last_name: str&lt;br&gt;&lt;/span&gt;&lt;/span&gt;&lt;/div&gt;&lt;div style=&quot;display: flex; justify-content: flex-start; text-align: left; align-items: baseline; font-size: 0; line-height: 1.25;margin-top: -2px;&quot;&gt;&lt;span&gt;&lt;span style=&quot;font-size:60px;&quot;&gt;&amp;nbsp;years_of_experience: int&lt;br&gt;&lt;/span&gt;&lt;/span&gt;&lt;/div&gt;&lt;div style=&quot;display: flex; justify-content: flex-start; text-align: left; align-items: baseline; font-size: 0; line-height: 1.25;margin-top: -2px;&quot;&gt;&lt;span&gt;&lt;span style=&quot;font-size:60px;&quot;&gt;&lt;br&gt;&lt;/span&gt;&lt;/span&gt;&lt;/div&gt;&lt;div style=&quot;display: flex; justify-content: flex-start; text-align: left; align-items: baseline; font-size: 0; line-height: 1.25;margin-top: -2px;&quot;&gt;&lt;span&gt;&lt;/span&gt;&lt;/div&gt;" style="html=1;overflow=block;blockSpacing=1;whiteSpace=wrap;fontSize=13;spacing=3.8;strokeOpacity=100;fillOpacity=100;rounded=1;absoluteArcSize=1;arcSize=9;strokeWidth=1.5;lucidId=HpcBN_YT6z4t;labelBackgroundColor=none;fillColor=#56517E;strokeColor=#EEEEEE;fontColor=#FFFFFF;" vertex="1" parent="1">
          <mxGeometry x="-645" y="-554" width="780" height="526" as="geometry" />
        </mxCell>
        <mxCell id="132" value="&lt;div style=&quot;display: flex; justify-content: flex-start; text-align: left; align-items: baseline; font-size: 0; line-height: 1.25;margin-top: -2px;&quot;&gt;&lt;span&gt;&lt;span style=&quot;font-size:60px;&quot;&gt;&lt;br&gt;&lt;/span&gt;&lt;/span&gt;&lt;/div&gt;&lt;div style=&quot;display: flex; justify-content: flex-start; text-align: left; align-items: baseline; font-size: 0; line-height: 1.25;margin-top: -2px;&quot;&gt;&lt;span&gt;&lt;span style=&quot;font-size:60px;&quot;&gt;&amp;nbsp;name:str&lt;/span&gt;&lt;/span&gt;&lt;/div&gt;" style="html=1;overflow=block;blockSpacing=1;whiteSpace=wrap;fontSize=13;spacing=9;verticalAlign=middle;strokeOpacity=100;rounded=1;absoluteArcSize=1;arcSize=9;strokeWidth=NaN;lucidId=KscBXRCLlgAI;labelBackgroundColor=none;fillColor=#56517E;strokeColor=#EEEEEE;fontColor=#FFFFFF;" vertex="1" parent="1">
          <mxGeometry x="-525" y="-1190" width="660" height="380" as="geometry" />
        </mxCell>
        <mxCell id="133" value="" style="html=1;overflow=block;blockSpacing=1;whiteSpace=wrap;fontSize=13;spacing=0;strokeOpacity=100;rounded=1;absoluteArcSize=1;arcSize=9;fillColor=#56517E;strokeWidth=NaN;lucidId=4tcBmS0V2Wdo;labelBackgroundColor=none;strokeColor=#EEEEEE;fontColor=#FFFFFF;" vertex="1" parent="1">
          <mxGeometry x="-518" y="-1045" width="653" height="2" as="geometry" />
        </mxCell>
        <mxCell id="134" value="DishType" style="html=1;overflow=block;blockSpacing=1;whiteSpace=wrap;fontSize=60;align=left;spacing=3.8;strokeOpacity=100;rounded=1;absoluteArcSize=1;arcSize=9;strokeWidth=NaN;lucidId=wucBVk6nkvXB;labelBackgroundColor=none;fillColor=#56517E;strokeColor=#EEEEEE;fontColor=#FFFFFF;" vertex="1" parent="1">
          <mxGeometry x="-340" y="-1164" width="260" height="80" as="geometry" />
        </mxCell>
        <mxCell id="135" value="&lt;div style=&quot;display: flex; justify-content: flex-start; text-align: left; align-items: baseline; font-size: 0; line-height: 1.25;margin-top: -2px;&quot;&gt;&lt;span&gt;&lt;span style=&quot;font-size:60px;&quot;&gt;  &lt;br&gt;&lt;/span&gt;&lt;/span&gt;&lt;/div&gt;&lt;div style=&quot;display: flex; justify-content: flex-start; text-align: left; align-items: baseline; font-size: 0; line-height: 1.25;margin-top: -2px;&quot;&gt;&lt;span&gt;&lt;span style=&quot;font-size:60px;&quot;&gt;&lt;span style=&quot;font-size:60px;font-family: inter;&quot;&gt;&lt;br&gt;&lt;/span&gt;&lt;/span&gt;&lt;/span&gt;&lt;/div&gt;&lt;div style=&quot;display: flex; justify-content: flex-start; text-align: left; align-items: baseline; font-size: 0; line-height: 1.25;margin-top: -2px;&quot;&gt;&lt;span&gt;&lt;span style=&quot;font-size:60px;font-family: inter;&quot;&gt;&amp;nbsp;name: str&lt;br&gt;&amp;nbsp;dish_type = DishType&lt;/span&gt;&lt;/span&gt;&lt;span&gt;&lt;span style=&quot;font-size:60px;font-family: inter;&quot;&gt;&lt;br&gt;&lt;/span&gt;&lt;/span&gt;&lt;span&gt;&lt;span style=&quot;font-size:60px;font-family: inter;&quot;&gt;&lt;br&gt;&lt;/span&gt;&lt;/span&gt;&lt;/div&gt;&lt;div style=&quot;display: flex; justify-content: flex-start; text-align: left; align-items: baseline; font-size: 0; line-height: 1.25;margin-top: -2px;&quot;&gt;&lt;span&gt;&lt;span style=&quot;font-size:60px;font-family: inter;&quot;&gt;&amp;nbsp;description: text&lt;br&gt;&lt;/span&gt;&lt;/span&gt;&lt;/div&gt;&lt;div style=&quot;display: flex; justify-content: flex-start; text-align: left; align-items: baseline; font-size: 0; line-height: 1.25;margin-top: -2px;&quot;&gt;&lt;span&gt;&lt;span style=&quot;font-size:60px;font-family: inter;&quot;&gt;&amp;nbsp;price: decimal&lt;br&gt;&lt;/span&gt;&lt;/span&gt;&lt;/div&gt;&lt;div style=&quot;display: flex; justify-content: flex-start; text-align: left; align-items: baseline; font-size: 0; line-height: 1.25;margin-top: -2px;&quot;&gt;&lt;span&gt;&lt;span style=&quot;font-size:60px;font-family: inter;&quot;&gt;cooks = List[Cooker]&lt;/span&gt;&lt;/span&gt;&lt;span&gt;&lt;span style=&quot;font-size:60px;font-family: inter;&quot;&gt;&lt;br&gt;&lt;/span&gt;&lt;/span&gt;&lt;/div&gt;&lt;div style=&quot;display: flex; justify-content: flex-start; text-align: left; align-items: baseline; font-size: 0; line-height: 1.25;margin-top: -2px;&quot;&gt;&lt;span&gt;&lt;/span&gt;&lt;/div&gt;" style="html=1;overflow=block;blockSpacing=1;whiteSpace=wrap;fontSize=13;fontFamily=inter;spacing=9;verticalAlign=middle;strokeOpacity=100;fillOpacity=100;rounded=1;absoluteArcSize=1;arcSize=9;fillColor=#56517E;strokeWidth=1.5;lucidId=.wcBv4f1Q2uV;labelBackgroundColor=none;strokeColor=#EEEEEE;fontColor=#FFFFFF;" vertex="1" parent="1">
          <mxGeometry x="1050" y="-1169" width="788" height="621" as="geometry" />
        </mxCell>
        <mxCell id="136" value="" style="html=1;overflow=block;blockSpacing=1;whiteSpace=wrap;fontSize=13;spacing=0;strokeOpacity=100;rounded=1;absoluteArcSize=1;arcSize=9;fillColor=#56517E;strokeWidth=NaN;lucidId=gxcBYqi_WmCC;labelBackgroundColor=none;strokeColor=#EEEEEE;fontColor=#FFFFFF;" vertex="1" parent="1">
          <mxGeometry x="1050" y="-1012" width="788" height="2" as="geometry" />
        </mxCell>
        <mxCell id="137" value="Dish" style="html=1;overflow=block;blockSpacing=1;whiteSpace=wrap;fontSize=60;align=left;spacing=3.8;strokeOpacity=100;rounded=1;absoluteArcSize=1;arcSize=9;strokeWidth=NaN;lucidId=GxcBiL9EkuS0;labelBackgroundColor=none;fillColor=#56517E;strokeColor=#EEEEEE;fontColor=#FFFFFF;" vertex="1" parent="1">
          <mxGeometry x="1378" y="-1133" width="132" height="80" as="geometry" />
        </mxCell>
        <mxCell id="138" value="&lt;div style=&quot;display: flex; justify-content: flex-start; text-align: left; align-items: baseline; font-size: 0; line-height: 1.25;margin-top: -2px;&quot;&gt;&lt;span&gt;&lt;span style=&quot;font-size:60px;font-family: inter;&quot;&gt;&lt;br&gt;&lt;/span&gt;&lt;/span&gt;&lt;span&gt;&lt;span style=&quot;font-size:60px;font-family: inter;&quot;&gt;&lt;br&gt;&lt;br&gt;name: str&lt;br&gt;dish = Dish&lt;/span&gt;&lt;/span&gt;&lt;span&gt;&lt;span style=&quot;font-size:60px;font-family: inter;&quot;&gt;&lt;br&gt;&lt;/span&gt;&lt;/span&gt;&lt;/div&gt;" style="html=1;overflow=block;blockSpacing=1;whiteSpace=wrap;fontSize=13;fontFamily=inter;spacing=9;verticalAlign=bottom;strokeOpacity=100;fillOpacity=100;rounded=1;absoluteArcSize=1;arcSize=9;fillColor=#56517E;strokeWidth=1.5;lucidId=fAcBviZ.QQKk;labelBackgroundColor=none;strokeColor=#EEEEEE;fontColor=#FFFFFF;" vertex="1" parent="1">
          <mxGeometry x="1090" y="-388" width="810" height="360" as="geometry" />
        </mxCell>
        <mxCell id="139" value="" style="html=1;overflow=block;blockSpacing=1;whiteSpace=wrap;fontSize=13;spacing=0;strokeOpacity=100;rounded=1;absoluteArcSize=1;arcSize=9;fillColor=#56517E;strokeWidth=NaN;lucidId=qAcBaPG2D03.;labelBackgroundColor=none;strokeColor=#EEEEEE;fontColor=#FFFFFF;" vertex="1" parent="1">
          <mxGeometry x="1090" y="-228" width="810" height="2" as="geometry" />
        </mxCell>
        <mxCell id="140" value="Ingedient" style="html=1;overflow=block;blockSpacing=1;whiteSpace=wrap;fontSize=60;align=left;spacing=3.8;strokeOpacity=100;rounded=1;absoluteArcSize=1;arcSize=9;strokeWidth=NaN;lucidId=MAcBWZhP~5A4;labelBackgroundColor=none;fillColor=#56517E;strokeColor=#EEEEEE;fontColor=#FFFFFF;" vertex="1" parent="1">
          <mxGeometry x="1345" y="-358" width="272" height="80" as="geometry" />
        </mxCell>
        <mxCell id="141" value="" style="edgeStyle=orthogonalEdgeStyle;fontSize=12;html=1;endArrow=ERoneToMany;rounded=0;exitX=1.002;exitY=0.139;exitDx=0;exitDy=0;exitPerimeter=0;arcSize=20;labelBackgroundColor=none;fontColor=default;strokeColor=default;strokeWidth=5;" edge="1" parent="1" source="132">
          <mxGeometry width="100" height="100" relative="1" as="geometry">
            <mxPoint x="530" y="-548" as="sourcePoint" />
            <mxPoint x="1060" y="-858" as="targetPoint" />
            <Array as="points">
              <mxPoint x="593" y="-1137" />
              <mxPoint x="593" y="-858" />
              <mxPoint x="1050" y="-858" />
            </Array>
          </mxGeometry>
        </mxCell>
        <mxCell id="142" value="" style="edgeStyle=orthogonalEdgeStyle;fontSize=12;html=1;endArrow=ERmany;startArrow=ERmany;rounded=0;labelBackgroundColor=none;strokeColor=#182E3E;fontColor=default;startSize=23;endSize=23;sourcePerimeterSpacing=23;targetPerimeterSpacing=23;jumpSize=16;strokeWidth=5;" edge="1" parent="1">
          <mxGeometry width="100" height="100" relative="1" as="geometry">
            <mxPoint x="1060" y="-63" as="sourcePoint" />
            <mxPoint x="1060" y="-1043" as="targetPoint" />
            <Array as="points">
              <mxPoint x="1090" y="-63" />
              <mxPoint x="1090" y="-53" />
              <mxPoint x="770" y="-53" />
              <mxPoint x="770" y="-1043" />
            </Array>
          </mxGeometry>
        </mxCell>
      </root>
    </mxGraphModel>
  </diagram>
</mxfile>
